<svg xmlns="http://www.w3.org/2000/svg" viewBox="0 0 640 360" role="img" aria-labelledby="title desc">
  <title id="title">FillWords word grid thumbnail</title>
  <desc id="desc">A solid-color word puzzle board with connected letter tiles.</desc>
  <rect width="640" height="360" fill="#0e7490"/>
  <rect x="54" y="44" width="532" height="272" rx="24" fill="#ffffff"/>
  <rect x="78" y="70" width="232" height="220" rx="18" fill="#e8fbff"/>
  <g fill="#101827" font-family="Arial, Helvetica, sans-serif" font-weight="900" text-anchor="middle">
    <rect x="101" y="94" width="50" height="50" rx="12" fill="#ff5e4d"/>
    <text x="126" y="128" font-size="26" fill="#ffffff">F</text>
    <rect x="166" y="94" width="50" height="50" rx="12" fill="#f6b63d"/>
    <text x="191" y="128" font-size="26" fill="#101827">I</text>
    <rect x="231" y="94" width="50" height="50" rx="12" fill="#23cc88"/>
    <text x="256" y="128" font-size="26" fill="#ffffff">L</text>
    <rect x="101" y="159" width="50" height="50" rx="12" fill="#20b8d8"/>
    <text x="126" y="193" font-size="26" fill="#ffffff">L</text>
    <rect x="166" y="159" width="50" height="50" rx="12" fill="#101827"/>
    <text x="191" y="193" font-size="26" fill="#ffffff">W</text>
    <rect x="231" y="159" width="50" height="50" rx="12" fill="#8b5cf6"/>
    <text x="256" y="193" font-size="26" fill="#ffffff">O</text>
    <rect x="101" y="224" width="50" height="50" rx="12" fill="#f97316"/>
    <text x="126" y="258" font-size="26" fill="#ffffff">R</text>
    <rect x="166" y="224" width="50" height="50" rx="12" fill="#2563eb"/>
    <text x="191" y="258" font-size="26" fill="#ffffff">D</text>
    <rect x="231" y="224" width="50" height="50" rx="12" fill="#ff5e4d"/>
    <text x="256" y="258" font-size="26" fill="#ffffff">S</text>
  </g>
  <path d="M126 119h65v65h65v65" fill="none" stroke="#101827" stroke-width="10" stroke-linecap="round" stroke-linejoin="round" opacity=".42"/>
  <g fill="#101827" font-family="Arial, Helvetica, sans-serif">
    <text x="344" y="139" font-size="48" font-weight="900">FillWords</text>
    <text x="346" y="182" font-size="22" font-weight="700" fill="#375569">Swipe letters</text>
    <text x="346" y="215" font-size="22" font-weight="700" fill="#375569">Find hidden words</text>
    <rect x="346" y="246" width="154" height="42" rx="21" fill="#101827"/>
    <text x="423" y="274" font-size="17" font-weight="900" fill="#ffffff" text-anchor="middle">PLAY NOW</text>
  </g>
</svg>
